<?xml version="1.0" encoding="utf-8"?>
<svg viewBox="-125.474 33.214 890.263 431.727" width="890.263" height="431.727" xmlns="http://www.w3.org/2000/svg">
  <rect x="60.808" y="34.913" width="703.576" height="387.54" fill="#e6e6e6" style=""/>
  <rect x="123.023" y="86.954" width="254" height="224.473" fill="#fff" style=""/>
  <rect x="472.023" y="91.307" width="254" height="272.636" fill="#fff" style=""/>
  <ellipse cx="267.735" cy="445.165" rx="45.5" ry="5.59" fill="#e6e6e6" style=""/>
  <ellipse cx="-17.739" cy="439.575" rx="104.425" ry="4.3" fill="#e6e6e6" style=""/>
  <rect x="60.508" width="703.576" height="25.707" fill="#6615bf" y="34.57" style=""/>
  <circle cx="-123.781" cy="-152.369" r="5.54" fill="#e6e6e6" style="" transform="matrix(1, 0, 0, 0.860051, 206.500855, 178.75853)"/>
  <circle cx="-102.753" cy="-152.369" r="5.54" fill="#e6e6e6" style="" transform="matrix(1, 0, 0, 0.860051, 206.500855, 178.75853)"/>
  <circle cx="-81.725" cy="-152.369" r="5.54" fill="#e6e6e6" style="" transform="matrix(1, 0, 0, 0.860051, 206.500855, 178.75853)"/>
  <path d="M 670.023 164.437 L 668.484 164.437 L 668.484 128.186 C 668.484 116.597 657.562 107.204 644.088 107.204 L 554.787 107.204 C 541.313 107.204 530.391 116.597 530.391 128.186 L 530.391 327.065 C 530.391 338.652 541.313 348.046 554.787 348.046 L 644.088 348.046 C 657.562 348.046 668.484 338.652 668.484 327.065 L 668.484 190.242 L 670.023 190.242 Z" fill="#3f3d56" style=""/>
  <path d="M 644.073 112.663 L 632.416 112.663 C 634.738 117.559 630.55 122.918 624.402 122.918 L 573.242 122.918 C 567.094 122.918 562.906 117.559 565.228 112.663 L 554.341 112.663 C 544.279 112.663 536.123 119.677 536.123 128.331 L 536.123 326.919 C 536.123 335.572 544.279 342.588 554.341 342.588 L 644.073 342.588 C 654.134 342.588 662.291 335.572 662.291 326.919 L 662.291 128.331 C 662.291 119.677 654.134 112.663 644.073 112.663 Z" fill="#fff" style=""/>
  <rect x="161.926" y="228.749" width="176.544" height="6.926" fill="#e6e6e6" style=""/>
  <rect x="161.926" y="251.11" width="176.544" height="6.926" fill="#6615bf" style=""/>
  <rect x="161.926" y="273.472" width="176.544" height="6.926" fill="#e6e6e6" style=""/>
  <rect x="548.675" y="243.86" width="103.064" height="6.926" fill="#e6e6e6" style=""/>
  <rect x="548.675" y="265.361" width="103.064" height="6.926" fill="#e6e6e6" style=""/>
  <rect x="548.675" y="286.863" width="103.064" height="6.926" fill="#e6e6e6" style=""/>
  <rect x="793.269" y="606.563" width="14.773" height="17.177" transform="matrix(0, 1, -1, 0, 1269.077764, -413.63437)" fill="#3f3d56" style=""/>
  <rect x="769.467" y="606.563" width="14.773" height="17.177" transform="matrix(0, 1, -1, 0, 1241.403203, -389.832857)" fill="#6615bf" style=""/>
  <rect x="745.666" y="606.563" width="14.773" height="17.177" transform="matrix(0, 1, -1, 0, 1213.728642, -366.031343)" fill="#3f3d56" style=""/>
  <rect x="721.864" y="606.563" width="14.773" height="17.177" transform="matrix(0, 1, -1, 0, 1186.054204, -342.22986)" fill="#3f3d56" style=""/>
  <rect x="698.063" y="606.563" width="14.773" height="17.177" transform="matrix(0, 1, -1, 0, 1158.379643, -318.428315)" fill="#3f3d56" style=""/>
  <path d="M 227.441 271.594 L 226.7 272.87 L 224.476 263.308 C 224.476 263.308 221.512 253.109 227.441 253.109 C 233.37 253.109 231.888 263.308 231.888 263.308 L 231.888 270.319 Z" style="fill: rgb(255, 184, 184);"/>
  <path d="M 324.682 270.289 L 325.423 271.564 L 327.647 262.003 C 327.647 262.003 330.611 251.804 324.682 251.804 C 318.753 251.804 320.235 262.003 320.235 262.003 L 320.235 269.014 Z" style="fill: rgb(255, 184, 184);"/>
  <polygon points="260.051 343.277 251.158 390.445 255.604 436.339 265.98 432.515 264.498 398.094 274.874 370.685 277.097 403.193 272.651 436.976 285.991 438.251 295.626 368.773 294.885 345.189 260.051 343.277" fill="#2f2e41" style=""/>
  <path d="M 260.051 430.603 L 254.863 437.614 L 254.863 453.281 C 254.863 454.213 255.649 455.008 256.719 455.157 C 259.262 455.515 263.69 455.77 265.239 453.549 C 267.462 450.363 265.98 443.351 265.98 443.351 C 265.98 443.351 268.944 438.251 267.462 434.427 C 265.98 430.603 264.498 429.965 264.498 429.965 Z" fill="#2f2e41" style=""/>
  <path d="M 282.285 436.977 L 283.767 438.889 C 283.767 438.889 285.991 440.801 284.508 442.076 C 283.42 443.067 282.429 444.132 281.544 445.263 C 281.544 445.263 273.391 447.175 273.391 444.626 L 273.391 436.339 Z" fill="#2f2e41" style=""/>
  <circle cx="73.113" cy="121.145" r="9.824" style="fill: rgb(255, 184, 184);" transform="matrix(1, 0, 0, 0.860051, 206.500855, 178.75853)"/>
  <polygon points="273.021 285.591 272.28 297.702 285.62 298.339 284.879 286.228 273.021 285.591" style="fill: rgb(255, 184, 184);"/>
  <path d="M 287.473 298.658 L 285.369 294.238 C 285.369 294.238 275.615 291.009 272.65 294.196 L 271.168 298.021 L 259.31 295.471 L 252.639 308.219 L 258.569 344.551 C 258.569 344.551 274.132 361.762 294.884 345.19 L 300.813 310.769 L 296.366 297.383 Z" fill="#575a89" style=""/>
  <polygon points="294.885 299.933 296.367 297.383 311.19 289.733 320.236 266.704 327.236 269.284 319.342 296.745 297.849 313.955 294.885 299.933" fill="#575a89" style=""/>
  <polygon points="260.792 296.745 259.31 295.471 243.746 287.184 232.629 268.062 223.736 270.611 233.37 294.195 257.087 310.769 260.792 296.745" fill="#575a89" style=""/>
  <path d="M 286.905 270.01 L 288.512 269.319 L 286.102 268.629 L 286.102 267.937 C 286.102 267.937 274.055 263.793 272.449 270.7 C 268.192 275.62 268.192 282.358 272.449 287.278 L 272.449 289.351 L 285.299 290.732 L 286.905 286.587 C 286.905 286.587 294.937 274.154 286.905 270.01 Z" fill="#2f2e41" style=""/>
  <path d="M -7.075 344.025 L -9.93 345.253 C -9.93 345.253 -21.352 349.756 -18.02 352.211 C -14.689 354.667 -5.647 349.756 -5.647 349.756 L -3.743 347.709 Z" fill="#ffb8b8" style=""/>
  <polygon points="76.469 343.414 67.643 394.369 54.317 429.978 47.179 427.113 53.841 378.406 34.805 364.49 36.233 344.025 76.469 343.414" fill="#2f2e41" style=""/>
  <path d="M 46.227 428.341 C 46.227 428.341 54.317 424.657 54.793 429.979 L 53.841 435.3 C 53.841 435.3 56.696 444.713 47.178 442.667 C 37.66 440.62 44.323 434.481 44.323 434.481 Z" fill="#2f2e41" style=""/>
  <path d="M 40.992 359.988 L 34.805 364.49 C 34.805 364.49 34.805 392.323 39.088 396.416 C 43.371 400.509 70.498 421.383 71.449 422.202 C 72.401 423.02 76.684 414.016 76.684 414.016 L 50.986 388.23 L 52.889 372.267 Z" fill="#2f2e41" style=""/>
  <path d="M 73.829 412.788 C 73.829 412.788 81.443 411.56 81.443 416.062 C 81.538 419.622 81.856 423.174 82.395 426.704 C 82.395 426.704 84.299 441.029 78.112 438.983 C 71.925 436.936 69.546 422.611 69.546 422.611 C 70.121 421.42 71.121 420.417 72.401 419.746 C 74.305 418.927 73.829 412.788 73.829 412.788 Z" fill="#2f2e41" style=""/>
  <polygon points="50.034 282.629 51.462 297.774 47.655 303.504 37.185 294.908 36.233 283.448 50.034 282.629" fill="#ffb8b8" style=""/>
  <circle cx="-165.034" cy="115.063" r="11.422" fill="#ffb8b8" style="" transform="matrix(1, 0, 0, 0.860051, 206.500855, 178.75853)"/>
  <polygon points="46.227 297.365 50.986 285.495 59.552 293.681 75.257 345.662 63.359 351.802 58.125 345.252 57.173 353.848 33.853 349.755 31.95 294.908 36.706 289.147 46.227 297.365" fill="#d0cde1" style=""/>
  <polygon points="39.564 355.485 36.709 289.179 30.522 293.272 19.1 299.82 26.715 323.151 29.094 347.709 39.564 355.485" fill="#2f2e41" style=""/>
  <polygon points="22.432 300.229 19.1 299.82 9.582 323.969 -9.454 344.434 -2.315 350.983 19.576 332.564 27.667 317.42 22.432 300.229" fill="#2f2e41" style=""/>
  <path d="M 74.404 344.4 L 73.755 347.088 C 73.755 347.088 70.784 357.587 75.089 356.861 C 79.395 356.135 80.517 346.988 80.517 346.988 L 79.83 344.434 Z" fill="#ffb8b8" style=""/>
  <polygon points="50.242 284.83 73.829 292.862 70.974 317.42 76.685 344.434 70.974 349.755 49.858 288.309 50.242 284.83" fill="#2f2e41" style=""/>
  <path d="M 42.065 261.22 L 45.418 259.779 L 45.418 261.22 L 47.653 260.259 L 47.653 262.662 C 47.653 262.662 56.035 267.948 54.358 274.196 C 52.682 280.443 52.682 280.923 52.682 280.923 C 52.682 280.923 50.563 269.042 42.181 270.965 C 33.8 272.887 33.125 273.234 30.89 278.521 L 30.284 280.788 C 30.284 280.788 20.832 262.181 42.065 261.22 Z" fill="#2f2e41" style=""/>
  <polygon points="70.498 292.862 74.305 292.862 80.492 321.513 80.492 346.48 72.878 345.252 66.691 307.597 70.498 292.862" fill="#2f2e41" style=""/>
  <rect x="-118.629" y="353.453" width="140.321" height="83.864" fill="#6615bf" style=""/>
  <path d="M -48.469 369.817 C -71.354 369.817 -85.658 391.124 -74.215 408.169 C -62.772 425.215 -34.166 425.215 -22.723 408.169 C -20.114 404.283 -18.74 399.873 -18.74 395.386 C -18.788 381.282 -32.07 369.858 -48.469 369.817 Z M -48.469 377.487 C -41.603 377.487 -37.312 383.88 -40.745 388.993 C -44.178 394.107 -52.76 394.107 -56.193 388.993 C -56.976 387.827 -57.388 386.505 -57.388 385.158 C -57.371 380.927 -53.388 377.502 -48.469 377.487 Z M -48.469 414.414 C -55.622 414.386 -62.297 411.322 -66.306 406.227 C -66.163 401.113 -54.415 398.299 -48.469 398.299 C -42.523 398.299 -30.774 401.113 -30.632 406.227 C -34.645 411.318 -41.318 414.381 -48.469 414.414 Z" fill="#fff" style=""/>
  <rect x="471.727" y="235.256" width="1.794" height="194.615" transform="matrix(0.555032, -0.831829, 0.90435, 0.446344, -313.053041, 400.892824)" fill="#fff" style=""/>
  <rect x="411.628" y="307.444" width="196.271" height="1.778" transform="matrix(0.896759, -0.442518, 0.55968, 0.838944, -379.681459, 123.092812)" fill="#fff" style=""/>
  <rect x="816.574" y="306.572" width="1.865" height="74.335" transform="matrix(0.758166, -0.652062, 0.766799, 0.659486, -283.861451, 484.921327)" fill="#fff" style=""/>
  <rect x="779.915" y="342.818" width="75.181" height="1.844" transform="matrix(0.758166, -0.652062, 0.766799, 0.659486, -283.861451, 484.921327)" fill="#fff" style=""/>
</svg>